<?xml version="1.0" encoding="iso-8859-1"?>
<!-- Generator: Adobe Illustrator 19.0.0, SVG Export Plug-In . SVG Version: 6.00 Build 0)  -->
<svg xmlns="http://www.w3.org/2000/svg" xmlns:xlink="http://www.w3.org/1999/xlink" version="1.1" id="Capa_1" x="0px" y="0px" viewBox="0 0 45 45" style="enable-background:new 0 0 45 45;" xml:space="preserve" width="512px" height="512px">
<g>
	<path d="M38.5,6.5L6.513,6.513C2.982,6.513,0,9.483,0,13v19c0,3.523,2.977,6.5,6.5,6.5h32c3.523,0,6.5-2.977,6.5-6.5V13   C45,9.477,42.023,6.5,38.5,6.5z M42,32c0,1.864-1.636,3.5-3.5,3.5h-32C4.636,35.5,3,33.864,3,32V13   c0-1.858,1.642-3.487,3.513-3.487L38.5,9.5c1.864,0,3.5,1.636,3.5,3.5V32z" fill="#c5050c"/>
	<path d="M29.5,11h-20c-2.57,0-5,2.43-5,5v13c0,2.57,2.43,5,5,5h20c2.485,0,5-1.374,5-4V16C34.5,13.43,32.07,11,29.5,11z M32.5,30   c0,1.582-1.962,2-3,2h-20c-1.458,0-3-1.542-3-3V16c0-1.458,1.542-3,3-3h20c1.458,0,3,1.542,3,3V30z" fill="#c5050c"/>
	<path d="M23.898,18.917c0.497-0.215,0.733-0.789,0.528-1.293c-0.208-0.511-0.79-0.759-1.303-0.55   c-0.803,0.326-2.162,1.536-2.162,4.003c0,0.969,0.501,1.806,0.944,2.545c0.278,0.466,0.594,0.993,0.594,1.301   c0,0.756-0.407,1.532-1.246,2.37c-0.39,0.391-0.39,1.024,0,1.414C21.45,28.902,21.706,29,21.962,29s0.512-0.098,0.707-0.293   c1.232-1.232,1.831-2.47,1.831-3.784c0-0.86-0.446-1.606-0.878-2.328c-0.324-0.542-0.66-1.103-0.66-1.519   C22.962,19.416,23.83,18.951,23.898,18.917z" fill="#c5050c"/>
	<path d="M17.36,18.917c0.497-0.216,0.733-0.79,0.528-1.294c-0.208-0.511-0.788-0.759-1.303-0.55   c-0.803,0.326-2.162,1.536-2.162,4.003c0,0.969,0.501,1.807,0.944,2.545c0.279,0.466,0.595,0.994,0.595,1.301   c0,0.756-0.407,1.532-1.246,2.37c-0.391,0.391-0.391,1.023,0,1.414C14.912,28.902,15.167,29,15.423,29s0.512-0.098,0.707-0.293   c1.232-1.232,1.832-2.47,1.832-3.784c0-0.86-0.447-1.606-0.878-2.328c-0.325-0.542-0.66-1.103-0.66-1.519   C16.423,19.417,17.29,18.952,17.36,18.917z" fill="#c5050c"/>
	<circle cx="38.501" cy="17" r="2" fill="#c5050c"/>
	<circle cx="38.501" cy="23" r="2" fill="#c5050c"/>
	<circle cx="38.501" cy="29" r="2" fill="#c5050c"/>
</g>
<g>
</g>
<g>
</g>
<g>
</g>
<g>
</g>
<g>
</g>
<g>
</g>
<g>
</g>
<g>
</g>
<g>
</g>
<g>
</g>
<g>
</g>
<g>
</g>
<g>
</g>
<g>
</g>
<g>
</g>
</svg>
