<?xml version="1.0" encoding="iso-8859-1"?>
<!-- Generator: Adobe Illustrator 19.0.0, SVG Export Plug-In . SVG Version: 6.00 Build 0)  -->
<svg xmlns="http://www.w3.org/2000/svg" xmlns:xlink="http://www.w3.org/1999/xlink" version="1.1" id="Capa_1" x="0px" y="0px" viewBox="0 0 512 512" style="enable-background:new 0 0 512 512;" xml:space="preserve" width="512px" height="512px">
<g>
	<g>
		<path d="M483.97,400.393c7.546-15.04,11.613-31.755,11.762-49.138c0.254-29.844-11.058-57.928-31.854-79.08l-6.969-7.09    c-20.795-21.153-48.682-32.941-78.525-33.196c-2.935-0.021-5.852,0.073-8.749,0.272c9.496-17.871,14.886-38.24,14.886-59.849    c0-41.492-19.853-78.428-50.553-101.825c-4.043-39.14-37.25-69.79-77.419-69.79c-40.169,0-73.375,30.65-77.419,69.79    c-30.7,23.398-50.554,60.334-50.554,101.825c0,51.463,30.538,95.92,74.441,116.223l-4.36,13.893l-0.033,0.107    c-2.895,9.473-11.454,15.836-21.3,15.836C79.547,318.373,0,398.206,0,496.334v14.968h512v-14.968    C512,464.709,501.624,429.504,483.97,400.393z M347.002,134.518c-33.659-3.746-61.927-26.7-72.546-58.595    C307.274,82.006,334.406,104.486,347.002,134.518z M256.548,30.634c15.853,0,29.937,7.764,38.662,19.683    c-12.204-3.876-25.192-5.974-38.662-5.974c-13.47,0-26.458,2.099-38.662,5.974C226.611,38.398,240.694,30.634,256.548,30.634z     M238.652,75.921c-10.557,31.737-38.729,54.846-72.559,58.6C178.69,104.483,205.827,82,238.652,75.921z M158.512,172.315    c0-2.466,0.094-4.909,0.273-7.329c41.356-0.834,77.705-23.094,97.774-56.653c20.145,33.69,56.594,55.819,97.752,56.654    c0.18,2.42,0.273,4.864,0.273,7.328c0,31.796-15.218,60.1-38.75,78.023c-1.88,1.247-3.725,2.555-5.533,3.921    c-15.446,10.166-33.919,16.092-53.753,16.092C202.49,270.351,158.512,226.373,158.512,172.315z M262.269,300.152l-37.623,36.988    c-2.272-2.895-4.236-6.024-5.834-9.329c3.669-4.83,6.551-10.366,8.421-16.457l4.249-13.54c8.109,1.618,16.489,2.473,25.067,2.473    C258.466,300.287,260.372,300.237,262.269,300.152z M30.682,481.366c7.496-74.619,70.402-133.057,146.642-133.057    c5.923,0,11.644-0.985,16.995-2.814c2.555,4.502,5.54,8.76,8.904,12.705l-45.036,44.275    c-21.185,20.826-33.002,49.411-33.187,78.892H30.682z M154.933,481.366c0.175-21.524,8.801-42.366,24.24-57.544l24.663-24.246    c15.357-6.643,32.93-9.845,49.689-11.14l4.072,25.637l29.566-4.696l-3.413-21.488c10.128,0.362,18.912,1.18,25.319,1.937    c1.333,4.957,3.652,9.648,6.897,13.824c6.405,8.241,15.636,13.495,25.994,14.793c1.651,0.208,9.875,0.067,12.281-0.395    c7.128,2.26,14.442,3.385,21.698,3.385c18.521,0,36.642-7.194,50.177-20.729c27.661-27.661,27.661-72.668,0-100.329    c-13.4-13.399-31.215-20.778-50.164-20.778s-36.765,7.38-50.163,20.779c-15.747,15.747-22.933,37.538-20.258,58.923    c-15.143-1.475-37.206-2.565-60.575-0.144l75.336-74.063c2.435-2.394,11.062-8.981,12.708-10.209    c13.278-8.635,28.851-13.21,45.13-13.056c21.845,0.184,42.241,8.795,57.432,24.245l6.969,7.09    c15.189,15.45,23.452,35.991,23.265,57.838c-0.187,21.847-8.797,42.244-24.248,57.434l-74.185,72.932H154.933z M377.673,355.69    c-6.405-8.241-15.636-13.495-25.994-14.793c-5.503-0.69-10.886-0.186-15.895,1.299c1.594-7.659,5.379-14.863,11.169-20.654    c7.745-7.745,18.043-12.011,28.997-12.011c10.954,0,21.251,4.266,28.998,12.011c15.988,15.989,15.988,42.005,0,57.994    c-5.749,5.749-12.943,9.511-20.62,11.097c0.574-1.98,1.004-4.017,1.265-6.102C386.892,374.174,384.079,363.931,377.673,355.69z     M355.889,380.807L355.889,380.807c-0.303,2.424-1.532,4.582-3.461,6.081c-1.928,1.498-4.321,2.154-6.747,1.853    c-2.423-0.304-4.582-1.533-6.08-3.461c-1.498-1.928-2.155-4.325-1.851-6.747c0.579-4.617,4.525-8.005,9.064-8.005    c0.377,0,0.759,0.024,1.144,0.072c2.423,0.304,4.582,1.533,6.08,3.461C355.536,375.988,356.193,378.384,355.889,380.807z     M410.065,481.367v-0.001l52.471-51.584c0.761-0.748,1.507-1.508,2.243-2.274c8.577,17.104,14.302,35.836,16.395,53.859H410.065z" fill="#eb7f13"/>
	</g>
</g>
<g>
</g>
<g>
</g>
<g>
</g>
<g>
</g>
<g>
</g>
<g>
</g>
<g>
</g>
<g>
</g>
<g>
</g>
<g>
</g>
<g>
</g>
<g>
</g>
<g>
</g>
<g>
</g>
<g>
</g>
</svg>
